<svg xmlns="http://www.w3.org/2000/svg" width="32" height="32" viewBox="0 0 32 32">
  <defs>
    <linearGradient id="mainGradient" x1="0%" y1="0%" x2="100%" y2="100%">
      <stop offset="0%" stop-color="#F472B6" />
      <stop offset="50%" stop-color="#8B5CF6" />
      <stop offset="100%" stop-color="#3B82F6" />
    </linearGradient>
    <filter id="neonGlow" x="-20%" y="-20%" width="140%" height="140%">
      <feGaussianBlur stdDeviation="1" result="blur" />
      <feFlood flood-color="#F472B6" flood-opacity="0.5" result="glowColor" />
      <feComposite in="glowColor" in2="blur" operator="in" result="softGlow" />
      <feComposite in="softGlow" in2="SourceGraphic" operator="over" />
    </filter>
    <clipPath id="hexClip">
      <path d="M16 2L30 10V22L16 30L2 22V10L16 2Z" />
    </clipPath>
  </defs>
  
  <!-- 主背景 - 六边形 -->
  <path d="M16 2L30 10V22L16 30L2 22V10L16 2Z" fill="url(#mainGradient)" />
  
  <!-- 装饰图案 - 网格线 -->
  <g clip-path="url(#hexClip)" opacity="0.15">
    <path d="M0 8H32M0 16H32M0 24H32" stroke="white" stroke-width="0.5" />
    <path d="M8 0V32M16 0V32M24 0V32" stroke="white" stroke-width="0.5" />
  </g>
  
  <!-- 中心图形 - 现代播放图标 -->
  <g filter="url(#neonGlow)">
    <!-- 播放三角形 - 不规则形状 -->
    <path d="M12 10L22 16L12 22V10Z" fill="white" />
    
    <!-- 装饰元素 - 垂直线 -->
    <path d="M10 10V22" stroke="white" stroke-width="2" stroke-linecap="round" />
  </g>
  
  <!-- 边缘高光 -->
  <path d="M16 2L30 10V22L16 30L2 22V10L16 2Z" fill="none" stroke="white" stroke-width="0.5" stroke-opacity="0.8" />
</svg>